<?xml version="1.0"?>
<svg xmlns="http://www.w3.org/2000/svg" xmlns:xlink="http://www.w3.org/1999/xlink" id="Gradient" viewBox="0 0 512 512" width="512" height="512"><defs><linearGradient id="linear-gradient" x1="256" y1="496" x2="256" y2="16" gradientUnits="userSpaceOnUse"><stop offset="0" stop-color="#12c2e9"/><stop offset="0.5" stop-color="#c471ed"/><stop offset="1" stop-color="#f64f59"/></linearGradient></defs><path d="M175.98,496a31.738,31.738,0,0,1-19.181-6.4l-128-96a32,32,0,0,1,0-51.2l128-96a32,32,0,0,1,38.4,51.2L144,336h0a286.111,286.111,0,0,0,203.647-84.354A286.114,286.114,0,0,0,432,48a32,32,0,0,1,64,0A351,351,0,0,1,392.9,296.9a350.8,350.8,0,0,1-111.878,75.423A349.839,349.839,0,0,1,144,400h0l51.2,38.4A32,32,0,0,1,175.98,496Zm0-239.992a15.915,15.915,0,0,0-9.58,3.193l-128,96a16,16,0,0,0,0,25.6l128,96a16,16,0,0,0,22.4-3.2,16.02,16.02,0,0,0-3.2-22.4l-70.4-52.8A8,8,0,0,1,120,384h24a333.919,333.919,0,0,0,130.792-26.411,334.868,334.868,0,0,0,106.8-72A334.995,334.995,0,0,0,480,48a16,16,0,0,0-32,0,302.014,302.014,0,0,1-89.04,214.961A302.006,302.006,0,0,1,144,352H120a8,8,0,0,1-4.8-14.4l70.4-52.8a15.994,15.994,0,0,0-9.62-28.793Z" style="fill:url(#linear-gradient)"/></svg>
