<svg id="Gradient" height="512" viewBox="0 0 512 512" width="512" xmlns="http://www.w3.org/2000/svg" xmlns:xlink="http://www.w3.org/1999/xlink"><linearGradient id="linear-gradient" gradientUnits="userSpaceOnUse" x1="256" x2="256" y1="496" y2="16.015"><stop offset="0" stop-color="#12c2e9"/><stop offset=".5" stop-color="#c471ed"/><stop offset="1" stop-color="#f64f59"/></linearGradient><path d="m256 496a32 32 0 0 1 -22.628-54.627l185.373-185.373-185.372-185.372a32 32 0 0 1 45.254-45.256l208 208a32.037 32.037 0 0 1 0 45.255l-208 208a31.788 31.788 0 0 1 -22.627 9.373zm0-464a16 16 0 0 0 -11.313 27.315l191.029 191.028a8 8 0 0 1 0 11.314l-191.03 191.03a16 16 0 1 0 22.628 22.626l208-208a16.017 16.017 0 0 0 0-22.627l-208-208a15.9 15.9 0 0 0 -11.314-4.686zm-208 464a31.788 31.788 0 0 1 -22.627-9.372 32.037 32.037 0 0 1 0-45.254l185.372-185.374-185.372-185.372a32 32 0 0 1 45.254-45.256l208 208a32.037 32.037 0 0 1 0 45.255l-208 208a31.788 31.788 0 0 1 -22.627 9.373zm-11.314-20.687a16 16 0 0 0 22.628 0l208-208a16.017 16.017 0 0 0 0-22.627l-208-208a16 16 0 1 0 -22.627 22.628l191.029 191.029a8 8 0 0 1 0 11.314l-191.03 191.03a16.017 16.017 0 0 0 0 22.627z" fill="url(#linear-gradient)"/></svg>