<svg enable-background="new 0 0 32 32" height="512" viewBox="0 0 32 32" width="512" xmlns="http://www.w3.org/2000/svg"><path d="m26 32h-20c-3.314 0-6-2.686-6-6v-20c0-3.314 2.686-6 6-6h20c3.314 0 6 2.686 6 6v20c0 3.314-2.686 6-6 6z" fill="#f5e6fe"/><path d="m17.5 8h-8.333c-.644 0-1.167.523-1.167 1.167v1.667c0 .643.523 1.166 1.167 1.166h8.333c.643 0 1.167-.523 1.167-1.167v-1.666c0-.644-.524-1.167-1.167-1.167z" fill="#be63f9"/><path d="m17.5 14h-8.333c-.644 0-1.167.523-1.167 1.167v1.667c0 .643.523 1.166 1.167 1.166h8.333c.643 0 1.167-.523 1.167-1.167v-1.667c0-.643-.524-1.166-1.167-1.166z" fill="#d9a4fc"/><g fill="#be63f9"><path d="m17.5 20h-8.333c-.644 0-1.167.523-1.167 1.167v1.667c0 .643.523 1.166 1.167 1.166h8.333c.643 0 1.167-.523 1.167-1.167v-1.667c0-.643-.524-1.166-1.167-1.166z"/><path d="m20.967 18.625c.182.078.395.044.54-.092l2.333-2.167c.102-.094.16-.227.16-.366s-.058-.272-.16-.367l-2.333-2.167c-.094-.088-.217-.133-.34-.133-.068 0-.135.014-.2.042-.182.079-.3.259-.3.458v4.333c0 .2.118.38.3.459z"/></g></svg>